<svg width="440" height="470" viewBox="0 0 440 470" fill="none" xmlns="http://www.w3.org/2000/svg">
<path style="mix-blend-mode:screen" opacity="0.28" d="M272.21 0L282.385 405.349L324.294 404.41L321.572 0H272.21Z" fill="url(#paint0_linear)"/>
<path d="M225.415 470C147.876 470 67.6636 463.716 67.6636 453.205C67.6636 442.695 147.876 436.35 225.415 436.35C302.953 436.35 383.178 442.635 383.178 453.205C383.178 463.776 302.965 470 225.415 470Z" fill="#00E1D2"/>
<path style="mix-blend-mode:screen" opacity="0.2" d="M345.297 11.7505H98.5264V399.342H345.297V11.7505Z" fill="url(#paint1_linear)"/>
<path style="mix-blend-mode:screen" opacity="0.35" d="M440 2.97485H0L97.9439 403.07H343.551L440 2.97485Z" fill="url(#paint2_linear)"/>
<path d="M98.5263 399.342L79.9189 440.095H373.45L345.297 399.342H98.5263Z" fill="url(#paint3_linear)"/>
<path d="M79.9189 440.094L80.4755 449.858H372.337L373.45 440.094H79.9189Z" fill="#002DA4"/>
<path d="M221.822 412.982C290.116 412.982 345.48 407.312 345.48 400.317C345.48 393.322 290.116 387.651 221.822 387.651C153.528 387.651 98.1641 393.322 98.1641 400.317C98.1641 407.312 153.528 412.982 221.822 412.982Z" fill="#5ABAFF"/>
<path d="M226.685 463.005C307.28 463.005 372.616 457.334 372.616 450.339C372.616 443.344 307.28 437.674 226.685 437.674C146.089 437.674 80.7539 443.344 80.7539 450.339C80.7539 457.334 146.089 463.005 226.685 463.005Z" fill="#002DA4"/>
<path d="M226.817 452.82C307.873 452.82 373.582 447.15 373.582 440.155C373.582 433.16 307.873 427.49 226.817 427.49C145.76 427.49 80.0513 433.16 80.0513 440.155C80.0513 447.15 145.76 452.82 226.817 452.82Z" fill="url(#paint4_linear)"/>
<path d="M133.105 428.826H132.996C117.882 427.787 102.86 425.699 88.0381 422.578L88.2922 421.494C102.994 424.59 117.895 426.662 132.887 427.694L151.143 419.147H151.301C178.667 421.723 228.73 422.674 229.19 422.686V423.806C228.694 423.806 178.812 422.831 151.373 420.266L133.105 428.826Z" fill="#00E1D2"/>
<path d="M211.949 452.182H210.835V444.188L146.835 440.78L130.792 449.593L130.248 448.618L146.569 439.649L146.738 439.661L211.949 443.128V452.182Z" fill="#00E1D2"/>
<path d="M228.541 413.561L227.416 413.583L228.205 452.843L229.33 452.821L228.541 413.561Z" fill="#00E1D2"/>
<path d="M228.777 436.302V435.195C229.116 435.195 264.758 435.195 298.404 433.004L304.138 423.878H304.404C304.743 423.878 339.236 419.796 357.141 416.052L357.371 417.148C340.264 420.76 308.07 424.564 304.804 424.949L299.045 434.111H298.742C265.484 436.278 230.217 436.302 228.777 436.302Z" fill="#00E1D2"/>
<path d="M339.285 448.654L338.353 448.028L344.886 438.541H345.104C345.249 438.541 359.404 435.435 369.591 434.111L369.736 435.218C360.287 436.422 347.378 439.191 345.539 439.589L339.285 448.654Z" fill="#00E1D2"/>
<path d="M322.693 407.559L321.635 407.903L326.093 421.475L327.151 421.131L322.693 407.559Z" fill="#00E1D2"/>
<path d="M105.483 404.543L96.458 423.828L97.478 424.301L106.502 405.016L105.483 404.543Z" fill="#00E1D2"/>
<path d="M295.336 296.16L319.062 282.405L342.789 296.16L319.062 309.572L295.336 296.16Z" stroke="#00E1D2"/>
<path d="M295.21 324.247V298.849L317.846 311.907V337.305L295.21 324.247Z" stroke="#00E1D2"/>
<path d="M342.914 324.247V298.849L320.278 311.907V337.305L342.914 324.247Z" stroke="#00E1D2"/>
<g opacity="0.7">
<path d="M334.021 163.154L348.173 154.949L362.326 163.154L348.173 171.154L334.021 163.154Z" stroke="#00E1D2"/>
<path d="M333.748 180.259V165.14L347.234 172.92V188.039L333.748 180.259Z" stroke="#00E1D2"/>
<path d="M362.599 180.259V165.14L349.112 172.92V188.039L362.599 180.259Z" stroke="#00E1D2"/>
</g>
<g opacity="0.5">
<path d="M299.701 175.324L308.801 170.049L317.9 175.324L308.801 180.468L299.701 175.324Z" stroke="#00E1D2"/>
<path d="M299.351 186.633V176.938L308.008 181.932V191.627L299.351 186.633Z" stroke="#00E1D2"/>
<path d="M318.251 186.633V176.938L309.594 181.932V191.627L318.251 186.633Z" stroke="#00E1D2"/>
</g>
<g opacity="0.6">
<path d="M84.7624 205.38L109.565 191.001L134.367 205.38L109.565 219.4L84.7624 205.38Z" stroke="#00E1D2"/>
<path d="M84.6538 234.7V208.148L108.317 221.799V248.351L84.6538 234.7Z" stroke="#00E1D2"/>
<path d="M134.476 234.7V208.148L110.812 221.799V248.351L134.476 234.7Z" stroke="#00E1D2"/>
</g>
<g opacity="0.3">
<path d="M64.0066 253.371L73.6499 247.781L83.2932 253.371L73.6499 258.822L64.0066 253.371Z" stroke="#00E1D2"/>
<path d="M63.6641 265.303V255.025L72.8411 260.319V270.597L63.6641 265.303Z" stroke="#00E1D2"/>
<path d="M83.6353 265.303V255.025L74.4582 260.319V270.597L83.6353 265.303Z" stroke="#00E1D2"/>
</g>
<defs>
<linearGradient id="paint0_linear" x1="298.246" y1="405.349" x2="298.246" y2="0" gradientUnits="userSpaceOnUse">
<stop stop-color="#0275FF"/>
<stop offset="1"/>
</linearGradient>
<linearGradient id="paint1_linear" x1="222.276" y1="397.356" x2="222.276" y2="11.6864" gradientUnits="userSpaceOnUse">
<stop stop-color="#0275FF"/>
<stop offset="1"/>
</linearGradient>
<linearGradient id="paint2_linear" x1="222.799" y1="315.225" x2="222.799" y2="2.95336" gradientUnits="userSpaceOnUse">
<stop stop-color="#0238FF"/>
<stop offset="1"/>
</linearGradient>
<linearGradient id="paint3_linear" x1="373.45" y1="419.572" x2="79.9189" y2="419.572" gradientUnits="userSpaceOnUse">
<stop stop-color="#0031B4"/>
<stop offset="1" stop-color="#1244FF"/>
</linearGradient>
<linearGradient id="paint4_linear" x1="373.582" y1="440.064" x2="80.0513" y2="440.064" gradientUnits="userSpaceOnUse">
<stop stop-color="#0031B4"/>
<stop offset="1" stop-color="#1244FF"/>
</linearGradient>
</defs>
</svg>
