<svg width="440" height="468" viewBox="0 0 440 468" fill="none" xmlns="http://www.w3.org/2000/svg">
<path d="M225.415 468C147.876 468 67.6636 461.716 67.6636 451.205C67.6636 440.695 147.876 434.35 225.415 434.35C302.953 434.35 383.178 440.635 383.178 451.205C383.178 461.776 302.965 468 225.415 468Z" fill="#00E1D2"/>
<path style="mix-blend-mode:screen" opacity="0.2" d="M345.297 9.75049H98.5264V397.342H345.297V9.75049Z" fill="url(#paint0_linear)"/>
<path style="mix-blend-mode:screen" opacity="0.35" d="M440 0.974854H0L97.9439 401.07H343.551L440 0.974854Z" fill="url(#paint1_linear)"/>
<path d="M98.526 397.342L79.9187 438.095H373.45L345.297 397.342H98.526Z" fill="url(#paint2_linear)"/>
<path d="M79.9187 438.094L80.4752 447.858H372.337L373.45 438.094H79.9187Z" fill="#002DA4"/>
<path d="M221.822 410.982C290.116 410.982 345.479 405.312 345.479 398.317C345.479 391.322 290.116 385.651 221.822 385.651C153.527 385.651 98.1638 391.322 98.1638 398.317C98.1638 405.312 153.527 410.982 221.822 410.982Z" fill="#5ABAFF"/>
<path d="M226.685 461.005C307.28 461.005 372.616 455.334 372.616 448.339C372.616 441.344 307.28 435.674 226.685 435.674C146.089 435.674 80.7539 441.344 80.7539 448.339C80.7539 455.334 146.089 461.005 226.685 461.005Z" fill="#002DA4"/>
<path d="M226.817 450.82C307.873 450.82 373.582 445.15 373.582 438.155C373.582 431.16 307.873 425.49 226.817 425.49C145.76 425.49 80.0513 431.16 80.0513 438.155C80.0513 445.15 145.76 450.82 226.817 450.82Z" fill="url(#paint3_linear)"/>
<path d="M133.105 426.826H132.996C117.882 425.786 102.86 423.699 88.0381 420.578L88.2922 419.494C102.994 422.59 117.895 424.662 132.887 425.694L151.143 417.146H151.301C178.667 419.723 228.73 420.674 229.19 420.686V421.806C228.694 421.806 178.812 420.83 151.373 418.266L133.105 426.826Z" fill="#00E1D2"/>
<path d="M211.949 450.182H210.835V442.188L146.835 438.78L130.792 447.593L130.248 446.618L146.569 437.649L146.738 437.661L211.949 441.128V450.182Z" fill="#00E1D2"/>
<path d="M228.541 411.561L227.416 411.583L228.205 450.843L229.33 450.821L228.541 411.561Z" fill="#00E1D2"/>
<path d="M228.777 434.302V433.195C229.116 433.195 264.758 433.195 298.403 431.004L304.138 421.878H304.404C304.743 421.878 339.235 417.796 357.141 414.052L357.371 415.148C340.264 418.76 308.07 422.564 304.803 422.949L299.045 432.111H298.742C265.484 434.278 230.217 434.302 228.777 434.302Z" fill="#00E1D2"/>
<path d="M339.285 446.654L338.353 446.028L344.886 436.541H345.104C345.249 436.541 359.404 433.435 369.591 432.111L369.736 433.218C360.287 434.422 347.378 437.191 345.539 437.589L339.285 446.654Z" fill="#00E1D2"/>
<path d="M322.693 405.559L321.635 405.903L326.093 419.475L327.151 419.131L322.693 405.559Z" fill="#00E1D2"/>
<path d="M105.483 402.543L96.4583 421.828L97.4782 422.301L106.503 403.016L105.483 402.543Z" fill="#00E1D2"/>
<path d="M295.336 294.16L319.062 280.405L342.789 294.16L319.062 307.572L295.336 294.16Z" stroke="#00E1D2"/>
<path d="M295.211 322.247V296.849L317.846 309.907V335.305L295.211 322.247Z" stroke="#00E1D2"/>
<path d="M342.914 322.247V296.849L320.279 309.907V335.305L342.914 322.247Z" stroke="#00E1D2"/>
<g opacity="0.7">
<path d="M334.021 161.154L348.174 152.949L362.326 161.154L348.174 169.154L334.021 161.154Z" stroke="#00E1D2"/>
<path d="M333.748 178.259V163.14L347.235 170.92V186.039L333.748 178.259Z" stroke="#00E1D2"/>
<path d="M362.599 178.259V163.14L349.113 170.92V186.039L362.599 178.259Z" stroke="#00E1D2"/>
</g>
<g opacity="0.5">
<path d="M299.701 173.324L308.801 168.049L317.9 173.324L308.801 178.468L299.701 173.324Z" stroke="#00E1D2"/>
<path d="M299.35 184.633V174.938L308.008 179.932V189.627L299.35 184.633Z" stroke="#00E1D2"/>
<path d="M318.251 184.633V174.938L309.593 179.932V189.627L318.251 184.633Z" stroke="#00E1D2"/>
</g>
<g opacity="0.6">
<path d="M84.7625 203.38L109.565 189.001L134.368 203.38L109.565 217.4L84.7625 203.38Z" stroke="#00E1D2"/>
<path d="M84.654 232.7V206.148L108.317 219.799V246.351L84.654 232.7Z" stroke="#00E1D2"/>
<path d="M134.476 232.7V206.148L110.813 219.799V246.351L134.476 232.7Z" stroke="#00E1D2"/>
</g>
<g opacity="0.3">
<path d="M64.0064 251.371L73.6497 245.781L83.293 251.371L73.6497 256.822L64.0064 251.371Z" stroke="#00E1D2"/>
<path d="M63.6641 263.303V253.025L72.8412 258.319V268.597L63.6641 263.303Z" stroke="#00E1D2"/>
<path d="M83.6353 263.303V253.025L74.4583 258.319V268.597L83.6353 263.303Z" stroke="#00E1D2"/>
</g>
<defs>
<linearGradient id="paint0_linear" x1="222.276" y1="395.356" x2="222.276" y2="9.68644" gradientUnits="userSpaceOnUse">
<stop stop-color="#0275FF"/>
<stop offset="0.552083" stop-color="#0073A5" stop-opacity="0.447917"/>
<stop offset="1" stop-opacity="0"/>
</linearGradient>
<linearGradient id="paint1_linear" x1="222.799" y1="313.225" x2="222.799" y2="0.953356" gradientUnits="userSpaceOnUse">
<stop stop-color="#0238FF"/>
<stop offset="0.557292" stop-color="#0025AE" stop-opacity="0.442708"/>
<stop offset="1" stop-opacity="0"/>
</linearGradient>
<linearGradient id="paint2_linear" x1="373.45" y1="417.572" x2="79.9187" y2="417.572" gradientUnits="userSpaceOnUse">
<stop stop-color="#0031B4"/>
<stop offset="1" stop-color="#1244FF"/>
</linearGradient>
<linearGradient id="paint3_linear" x1="373.582" y1="438.064" x2="80.0513" y2="438.064" gradientUnits="userSpaceOnUse">
<stop stop-color="#0031B4"/>
<stop offset="1" stop-color="#1244FF"/>
</linearGradient>
</defs>
</svg>
