<svg width="330" height="352" viewBox="0 0 330 352" fill="none" xmlns="http://www.w3.org/2000/svg">
<path style="mix-blend-mode:screen" opacity="0.28" d="M204.158 0L211.789 303.581L243.22 302.877L241.179 0H204.158Z" fill="url(#paint0_linear)"/>
<path d="M169.061 352C110.907 352 50.7476 347.293 50.7476 339.422C50.7476 331.55 110.907 326.798 169.061 326.798C227.215 326.798 287.383 331.505 287.383 339.422C287.383 347.338 227.224 352 169.061 352Z" fill="#00E1D2"/>
<path style="mix-blend-mode:screen" opacity="0.2" d="M258.973 8.80048H73.8945V299.082H258.973V8.80048Z" fill="url(#paint1_linear)"/>
<path style="mix-blend-mode:screen" opacity="0.35" d="M330 2.22803H0L73.4579 301.873H257.664L330 2.22803Z" fill="url(#paint2_linear)"/>
<path d="M73.8949 299.081L59.9395 329.603H280.088L258.973 299.081H73.8949Z" fill="url(#paint3_linear)"/>
<path d="M59.9395 329.602L60.3568 336.915H279.253L280.088 329.602H59.9395Z" fill="#002DA4"/>
<path d="M166.366 309.297C217.587 309.297 259.11 305.05 259.11 299.812C259.11 294.573 217.587 290.326 166.366 290.326C115.146 290.326 73.623 294.573 73.623 299.812C73.623 305.05 115.146 309.297 166.366 309.297Z" fill="#5ABAFF"/>
<path d="M170.014 346.761C230.46 346.761 279.462 342.514 279.462 337.275C279.462 332.037 230.46 327.79 170.014 327.79C109.567 327.79 60.5654 332.037 60.5654 337.275C60.5654 342.514 109.567 346.761 170.014 346.761Z" fill="#002DA4"/>
<path d="M170.113 339.133C230.905 339.133 280.187 334.887 280.187 329.648C280.187 324.409 230.905 320.162 170.113 320.162C109.32 320.162 60.0386 324.409 60.0386 329.648C60.0386 334.887 109.32 339.133 170.113 339.133Z" fill="url(#paint4_linear)"/>
<path d="M99.8282 321.163H99.7466C88.4113 320.385 77.1445 318.821 66.0283 316.484L66.2189 315.672C77.2453 317.991 88.4211 319.543 99.6649 320.316L113.357 313.914H113.475C134 315.844 171.548 316.556 171.892 316.565V317.403C171.52 317.403 134.109 316.673 113.53 314.753L99.8282 321.163Z" fill="#00E1D2"/>
<path d="M158.961 338.655H158.127V332.668L110.126 330.116L98.0944 336.717L97.686 335.986L109.927 329.269L110.054 329.278L158.961 331.875V338.655Z" fill="#00E1D2"/>
<path d="M171.406 309.731L170.562 309.747L171.154 339.151L171.998 339.134L171.406 309.731Z" fill="#00E1D2"/>
<path d="M171.583 326.763V325.933C171.837 325.933 198.568 325.933 223.803 324.292L228.104 317.457H228.303C228.557 317.457 254.427 314.401 267.856 311.597L268.028 312.417C255.198 315.122 231.053 317.971 228.603 318.26L224.284 325.121H224.057C199.113 326.744 172.663 326.763 171.583 326.763Z" fill="#00E1D2"/>
<path d="M254.463 336.013L253.765 335.545L258.664 328.439H258.828C258.937 328.439 269.553 326.113 277.193 325.121L277.302 325.951C270.215 326.852 260.534 328.926 259.154 329.224L254.463 336.013Z" fill="#00E1D2"/>
<path d="M242.02 305.236L241.227 305.493L244.57 315.658L245.363 315.4L242.02 305.236Z" fill="#00E1D2"/>
<path d="M79.1121 302.977L72.3438 317.42L73.1087 317.774L79.8771 303.331L79.1121 302.977Z" fill="#00E1D2"/>
<path d="M221.766 221.817L239.296 211.654L256.827 221.817L239.296 231.726L221.766 221.817Z" stroke="#00E1D2"/>
<path d="M221.533 242.768V224.036L238.259 233.671V252.403L221.533 242.768Z" stroke="#00E1D2"/>
<path d="M257.06 242.768V224.036L240.333 233.671V252.403L257.06 242.768Z" stroke="#00E1D2"/>
<g opacity="0.7">
<path d="M250.775 122.199L261.13 116.196L271.485 122.199L261.13 128.052L250.775 122.199Z" stroke="#00E1D2"/>
<path d="M250.436 134.93V123.896L260.301 129.578V140.612L250.436 134.93Z" stroke="#00E1D2"/>
<path d="M271.824 134.93V123.896L261.959 129.578V140.612L271.824 134.93Z" stroke="#00E1D2"/>
</g>
<g opacity="0.5">
<path d="M225.033 131.31L231.601 127.503L238.168 131.31L231.601 135.023L225.033 131.31Z" stroke="#00E1D2"/>
<path d="M224.638 139.703V132.732L230.881 136.328V143.3L224.638 139.703Z" stroke="#00E1D2"/>
<path d="M238.563 139.703V132.732L232.32 136.328V143.3L238.563 139.703Z" stroke="#00E1D2"/>
</g>
<g opacity="0.6">
<path d="M63.8373 153.829L82.1738 143.198L100.51 153.829L82.1738 164.193L63.8373 153.829Z" stroke="#00E1D2"/>
<path d="M63.6157 175.703V156.106L81.1133 166.186V185.782L63.6157 175.703Z" stroke="#00E1D2"/>
<path d="M100.732 175.703V156.106L83.2344 166.186V185.782L100.732 175.703Z" stroke="#00E1D2"/>
</g>
<g opacity="0.3">
<path d="M48.2626 189.763L55.2378 185.719L62.213 189.763L55.2378 193.706L48.2626 189.763Z" stroke="#00E1D2"/>
<path d="M47.8735 198.623V191.214L54.5063 195.035V202.444L47.8735 198.623Z" stroke="#00E1D2"/>
<path d="M62.6016 198.623V191.214L55.9688 195.035V202.444L62.6016 198.623Z" stroke="#00E1D2"/>
</g>
<defs>
<linearGradient id="paint0_linear" x1="223.685" y1="303.581" x2="223.685" y2="0" gradientUnits="userSpaceOnUse">
<stop stop-color="#0275FF"/>
<stop offset="1"/>
</linearGradient>
<linearGradient id="paint1_linear" x1="166.707" y1="297.595" x2="166.707" y2="8.75251" gradientUnits="userSpaceOnUse">
<stop stop-color="#0275FF"/>
<stop offset="1"/>
</linearGradient>
<linearGradient id="paint2_linear" x1="167.1" y1="236.084" x2="167.1" y2="2.21193" gradientUnits="userSpaceOnUse">
<stop stop-color="#0238FF"/>
<stop offset="1"/>
</linearGradient>
<linearGradient id="paint3_linear" x1="280.088" y1="314.232" x2="59.9395" y2="314.232" gradientUnits="userSpaceOnUse">
<stop stop-color="#0031B4"/>
<stop offset="1" stop-color="#1244FF"/>
</linearGradient>
<linearGradient id="paint4_linear" x1="280.187" y1="329.58" x2="60.0386" y2="329.58" gradientUnits="userSpaceOnUse">
<stop stop-color="#0031B4"/>
<stop offset="1" stop-color="#1244FF"/>
</linearGradient>
</defs>
</svg>
