<svg xmlns="http://www.w3.org/2000/svg" width="106" height="55" viewBox="0 0 106 55">
    <g fill="none" fill-rule="nonzero">
        <g fill="#FFF">
            <path d="M56.314 25.53c-.27.147-.602.22-.986.22-.129 0-.423-.012-.91-.06v1.33c.423.11.846.147 1.281.147.666 0 1.217-.17 1.665-.5.448-.33.846-.843 1.179-1.552l3.765-8.207-1.78.025-2.28 5.373-2.216-5.373h-1.78l3.087 7.034-.32.696c-.206.428-.449.721-.705.868zM65.114 23.296c.281.378.666.671 1.127.879.474.208.986.317 1.563.317 1.088 0 1.985-.354 2.69-1.099.704-.732 1.075-1.648 1.075-2.748 0-1.099-.358-2.015-1.088-2.748-.73-.732-1.64-1.099-2.729-1.099l.064-.012c-1.114 0-1.985.354-2.6 1.063V13.06h-1.652V24.31H65.1v-1.013h.013zm.704-4.422a2.396 2.396 0 0 1 1.652-.635c.68 0 1.243.22 1.704.672.461.452.679 1.026.679 1.722 0 .709-.218 1.295-.679 1.747-.461.452-.986.696-1.665.696h-.026c-.64 0-1.19-.196-1.652-.599-.461-.403-.692-1.001-.692-1.795s.218-1.392.68-1.808zM50.396 34.47h-.013c-.96 0-1.729.306-2.318.904v-.732h-1.537v7.4h1.652v-4.42c0-.501.154-.904.487-1.222.333-.317.756-.476 1.28-.476.5 0 .91.17 1.23.476.32.318.474.733.474 1.246v4.397h1.653v-4.617c0-.88-.256-1.588-.769-2.125-.512-.537-1.242-.83-2.139-.83zM58.799 34.458c-1.115 0-2.062.379-2.831 1.124-.769.745-1.166 1.66-1.166 2.748 0 1.099.397 2.015 1.179 2.748.781.733 1.78 1.111 2.971 1.111 1.179 0 2.204-.39 3.087-1.184l-.78-1.075c-.693.586-1.448.867-2.255.867-.68 0-1.243-.171-1.704-.513-.461-.342-.743-.83-.845-1.441h5.764c.14-.367.154-.99.154-.99 0-.976-.346-1.783-1.025-2.43-.666-.647-1.524-.965-2.55-.965zm-2.306 3.164c.128-.55.397-.99.807-1.32.41-.33.871-.488 1.422-.5.55 0 1.012.17 1.396.5.372.33.564.77.577 1.32h-4.202zM77.231 24.505c1.178 0 2.203-.391 3.087-1.185l-.781-1.075c-.692.587-1.448.867-2.255.867-.679 0-1.242-.17-1.703-.513-.462-.342-.743-.83-.846-1.44h5.764c.154-.392.154-.99.154-.99 0-.977-.346-1.783-1.025-2.43-.679-.648-1.524-.965-2.549-.965-1.114 0-2.062.378-2.83 1.123-.77.745-1.166 1.661-1.166 2.748 0 1.1.397 2.016 1.178 2.748.782.745 1.78 1.112 2.972 1.112zm-1.665-5.875c.41-.33.87-.488 1.422-.5.55 0 1.011.17 1.396.5.371.33.563.77.576 1.32H74.76c.128-.563.397-.99.807-1.32zM67.893 40.748c-.5 0-.884-.085-1.127-.28-.256-.196-.371-.526-.371-.99v-3.469h2.292v-1.367h-2.292v-1.93h-1.666v1.93h-1.255v1.367h1.255v3.603c0 .855.257 1.502.756 1.918.5.415 1.191.635 2.088.635.397 0 .845-.061 1.37-.171v-1.331c-.46.048-.78.085-1.024.085h-.026zM79.05 39.392l-2.383-4.921h-.563l-2.344 4.982-2.037-4.811h-1.755l3.433 7.523h.564l2.42-4.898 2.421 4.898h.577l3.42-7.523h-1.755zM87.35 34.47c-1.153 0-2.113.38-2.895 1.112-.781.733-1.178 1.649-1.178 2.736 0 1.087.397 1.99 1.178 2.735.782.733 1.742 1.112 2.895 1.124 1.127 0 2.088-.379 2.895-1.124.807-.745 1.191-1.66 1.191-2.748 0-1.074-.41-1.99-1.217-2.735-.781-.733-1.742-1.087-2.869-1.1zm1.678 5.545c-.461.452-1.025.672-1.704.672-.691 0-1.255-.22-1.716-.672-.461-.452-.679-1.026-.679-1.697 0-.696.218-1.258.68-1.71.46-.452 1.024-.672 1.715-.696h.013c.68.012 1.243.244 1.704.684.461.451.679 1.026.679 1.71a2.35 2.35 0 0 1-.692 1.71zM96.74 34.568h.06-.06zM94.498 35.594v-.965H92.96v7.401h1.653v-3.957c0-.647.218-1.135.64-1.502.423-.354.96-.537 1.601-.537h.5v-1.392a2.345 2.345 0 0 0-.615-.074c-.935 0-1.69.342-2.241 1.026zM83.828 20.401c0-.647.217-1.136.64-1.502.423-.354.96-.537 1.601-.537h.5v-1.393a2.345 2.345 0 0 0-.615-.073c-.948 0-1.704.354-2.254 1.038v-.965h-1.538v7.39h1.653V20.4h.013zM85.954 16.884h.06-.06zM98.891 30.746h1.652V42.03h-1.652zM102.542 37.878l3.112-3.236h-2.036l-3.023 3.224 3.368 4.164h1.986zM53.29 16.957h-2.049l-3.01 3.236 3.37 4.165h1.985l-3.408-4.152zM46.528 13.073h1.652v11.285h-1.652z"/>
        </g>
        <path fill="#31CB9E" d="M17.162 28.007L37.75 39.856a1.084 1.084 0 0 0 1.621-.938V17.084a1.08 1.08 0 0 0-1.62-.938L17.16 28.007zM36.923 10.622L22.983.222c-.648-.483-1.575-.136-1.74.634L16.153 24l20.643-11.59c.686-.386.749-1.316.127-1.788M22.97 54.783L36.922 44.38a1.067 1.067 0 0 0-.115-1.788L16.152 31l5.091 23.15c.152.77 1.092 1.104 1.727.633"/>
        <path fill="#31CB9E" d="M11.582 27.506l5.553-25.188c.218-.99-.938-1.704-1.761-1.09L1.157 11.805A2.836 2.836 0 0 0 0 14.085v26.83c0 .89.424 1.742 1.157 2.28l14.217 10.577c.823.614 1.98-.1 1.76-1.09l-5.552-25.176z"/>
    </g>
</svg>
