<svg width="30" height="30" viewBox="0 0 30 30" fill="none" xmlns="http://www.w3.org/2000/svg">
<path d="M0 8C0 3.58172 3.58172 0 8 0H22C26.4183 0 30 3.58172 30 8V22C30 26.4183 26.4183 30 22 30H8C3.58172 30 0 26.4183 0 22V8Z" fill="url(#paint0_linear)" fill-opacity="0.1"/>
<path d="M8 2H22V-2H8V2ZM28 8V22H32V8H28ZM22 28H8V32H22V28ZM2 22V8H-2V22H2ZM8 28C4.68629 28 2 25.3137 2 22H-2C-2 27.5228 2.47715 32 8 32V28ZM28 22C28 25.3137 25.3137 28 22 28V32C27.5228 32 32 27.5228 32 22H28ZM22 2C25.3137 2 28 4.68629 28 8H32C32 2.47715 27.5228 -2 22 -2V2ZM8 -2C2.47715 -2 -2 2.47715 -2 8H2C2 4.68629 4.68629 2 8 2V-2Z" fill="url(#paint1_linear)"/>
<defs>
<linearGradient id="paint0_linear" x1="30" y1="14" x2="-1.69691e-07" y2="14" gradientUnits="userSpaceOnUse">
<stop stop-color="#6795C6"/>
<stop offset="0.182292" stop-color="#8DA7D3"/>
<stop offset="0.354167" stop-color="#D2D7E3"/>
<stop offset="0.526042" stop-color="#BABAD7"/>
<stop offset="0.697917" stop-color="#90A1D3"/>
<stop offset="0.854167" stop-color="#BCC4E0"/>
<stop offset="1" stop-color="#D5D6E5"/>
</linearGradient>
<linearGradient id="paint1_linear" x1="30" y1="14" x2="-1.69691e-07" y2="14" gradientUnits="userSpaceOnUse">
<stop stop-color="#6795C6"/>
<stop offset="0.182292" stop-color="#8DA7D3"/>
<stop offset="0.354167" stop-color="#D2D7E3"/>
<stop offset="0.526042" stop-color="#BABAD7"/>
<stop offset="0.697917" stop-color="#90A1D3"/>
<stop offset="0.854167" stop-color="#BCC4E0"/>
<stop offset="1" stop-color="#D5D6E5"/>
</linearGradient>
</defs>
</svg>
